<svg width="800" height="500" viewBox="0 0 800 500" xmlns="http://www.w3.org/2000/svg" role="img" aria-labelledby="title desc">
  <title id="title">Audio Lecture Thumbnail</title>
  <desc id="desc">Audio waveform and headphones representing lecture audio</desc>
  <defs>
    <linearGradient id="bgaudio" x1="0" y1="0" x2="1" y2="1">
      <stop offset="0%" stop-color="#4f46e5"/>
      <stop offset="100%" stop-color="#8b5cf6"/>
    </linearGradient>
  </defs>
  <rect width="800" height="500" rx="24" fill="url(#bgaudio)"/>
  <g fill="#ffffff" opacity="0.9">
    <rect x="120" y="220" width="12" height="60" rx="6"/>
    <rect x="150" y="200" width="12" height="100" rx="6"/>
    <rect x="180" y="180" width="12" height="140" rx="6"/>
    <rect x="210" y="210" width="12" height="80" rx="6"/>
    <rect x="240" y="190" width="12" height="120" rx="6"/>
    <rect x="270" y="205" width="12" height="90" rx="6"/>
    <rect x="300" y="190" width="12" height="120" rx="6"/>
    <rect x="330" y="210" width="12" height="80" rx="6"/>
    <rect x="360" y="180" width="12" height="140" rx="6"/>
    <rect x="390" y="200" width="12" height="100" rx="6"/>
    <rect x="420" y="190" width="12" height="120" rx="6"/>
    <rect x="450" y="205" width="12" height="90" rx="6"/>
    <rect x="480" y="220" width="12" height="60" rx="6"/>
    <rect x="510" y="200" width="12" height="100" rx="6"/>
    <rect x="540" y="180" width="12" height="140" rx="6"/>
    <rect x="570" y="210" width="12" height="80" rx="6"/>
    <rect x="600" y="190" width="12" height="120" rx="6"/>
    <rect x="630" y="205" width="12" height="90" rx="6"/>
  </g>
  <circle cx="680" cy="250" r="70" fill="#1f2937" opacity="0.8"/>
  <path d="M655 220 h20 a15 15 0 0 1 15 15 v50 a15 15 0 0 1 -15 15 h-20" stroke="#ffffff" stroke-width="12" fill="none" stroke-linecap="round"/>
  <path d="M705 220 h20 a15 15 0 0 1 15 15 v50 a15 15 0 0 1 -15 15 h-20" stroke="#ffffff" stroke-width="12" fill="none" stroke-linecap="round"/>
</svg>

