<svg width="800" height="500" viewBox="0 0 800 500" xmlns="http://www.w3.org/2000/svg" role="img" aria-labelledby="title desc">
  <title id="title">Programming and Coding Illustration</title>
  <desc id="desc">Abstract laptop with code snippets and UI elements</desc>
  <defs>
    <linearGradient id="bgp" x1="0" y1="0" x2="1" y2="1">
      <stop offset="0%" stop-color="#111827"/>
      <stop offset="100%" stop-color="#1f2937"/>
    </linearGradient>
    <linearGradient id="panelp" x1="0" y1="0" x2="1" y2="0">
      <stop offset="0%" stop-color="#4f46e5"/>
      <stop offset="100%" stop-color="#8b5cf6"/>
    </linearGradient>
  </defs>
  <rect width="800" height="500" rx="24" fill="url(#bgp)"/>
  <rect x="120" y="80" width="560" height="340" rx="18" fill="#0b1221" stroke="#1f2937" stroke-width="6"/>
  <rect x="160" y="120" width="200" height="20" rx="10" fill="#4f46e5"/>
  <rect x="160" y="150" width="140" height="12" rx="6" fill="#9ca3af" opacity="0.7"/>
  <rect x="160" y="180" width="260" height="12" rx="6" fill="#9ca3af" opacity="0.6"/>
  <rect x="160" y="210" width="220" height="12" rx="6" fill="#9ca3af" opacity="0.5"/>
  <rect x="420" y="120" width="220" height="170" rx="14" fill="#111827" stroke="#1f2937" stroke-width="3"/>
  <rect x="440" y="140" width="50" height="50" rx="10" fill="#22d3ee"/>
  <rect x="500" y="150" width="140" height="12" rx="6" fill="#9ca3af" opacity="0.7"/>
  <rect x="500" y="170" width="110" height="10" rx="5" fill="#9ca3af" opacity="0.5"/>
  <rect x="440" y="210" width="60" height="10" rx="5" fill="#34d399"/>
  <rect x="510" y="210" width="110" height="10" rx="5" fill="#f59e0b"/>
  <rect x="160" y="260" width="420" height="16" rx="8" fill="#4f46e5" opacity="0.85"/>
  <rect x="160" y="290" width="360" height="14" rx="7" fill="#3b82f6" opacity="0.7"/>
  <rect x="160" y="320" width="300" height="14" rx="7" fill="#22d3ee" opacity="0.7"/>
  <rect x="160" y="350" width="200" height="14" rx="7" fill="#8b5cf6" opacity="0.7"/>
  <rect x="620" y="320" width="40" height="40" rx="10" fill="#111827" stroke="#1f2937" stroke-width="3"/>
  <rect x="632" y="332" width="16" height="16" rx="4" fill="#22d3ee"/>
</svg>

