<svg width="800" height="500" viewBox="0 0 800 500" xmlns="http://www.w3.org/2000/svg" role="img" aria-labelledby="title desc">
  <title id="title">Accounting and Finance Illustration</title>
  <desc id="desc">Calculator, charts, and financial documents</desc>
  <defs>
    <linearGradient id="bga" x1="0" y1="0" x2="1" y2="1">
      <stop offset="0%" stop-color="#0b1221"/>
      <stop offset="100%" stop-color="#111827"/>
    </linearGradient>
  </defs>
  <rect width="800" height="500" rx="24" fill="url(#bga)"/>
  <rect x="90" y="90" width="620" height="320" rx="18" fill="#0f172a" stroke="#1f2937" stroke-width="6"/>
  <rect x="130" y="130" width="200" height="260" rx="14" fill="#111827" stroke="#1f2937" stroke-width="3"/>
  <rect x="150" y="150" width="40" height="20" rx="6" fill="#22d3ee"/>
  <rect x="200" y="150" width="100" height="20" rx="6" fill="#3b82f6" opacity="0.8"/>
  <g fill="#e5e7eb">
    <rect x="150" y="190" width="140" height="10" rx="5" opacity="0.8"/>
    <rect x="150" y="210" width="120" height="10" rx="5" opacity="0.7"/>
    <rect x="150" y="230" width="100" height="10" rx="5" opacity="0.7"/>
    <rect x="150" y="260" width="140" height="10" rx="5" opacity="0.8"/>
    <rect x="150" y="280" width="120" height="10" rx="5" opacity="0.7"/>
    <rect x="150" y="300" width="100" height="10" rx="5" opacity="0.7"/>
  </g>
  <rect x="370" y="140" width="300" height="120" rx="16" fill="#111827" stroke="#1f2937" stroke-width="3"/>
  <rect x="390" y="160" width="60" height="80" rx="10" fill="#22d3ee" opacity="0.9"/>
  <rect x="470" y="160" width="60" height="100" rx="10" fill="#10b981" opacity="0.9"/>
  <rect x="550" y="160" width="60" height="70" rx="10" fill="#f59e0b" opacity="0.9"/>
  <rect x="630" y="160" width="20" height="80" rx="8" fill="#ef4444" opacity="0.85"/>
  <rect x="370" y="300" width="260" height="80" rx="16" fill="#1f2937"/>
  <text x="385" y="335" fill="#e5e7eb" font-family="Inter, 'Segoe UI', Arial" font-size="18" font-weight="700">Income Statement</text>
  <text x="385" y="360" fill="#9ca3af" font-family="Inter, 'Segoe UI', Arial" font-size="14">Revenue · Expenses · Net Income</text>
  <rect x="620" y="320" width="40" height="40" rx="10" fill="#8b5cf6" opacity="0.9"/>
</svg>

