<svg width="800" height="500" viewBox="0 0 800 500" xmlns="http://www.w3.org/2000/svg" role="img" aria-labelledby="title desc">
  <title id="title">Linguistics and Communication Illustration</title>
  <desc id="desc">Books, speech bubbles, and language symbols</desc>
  <defs>
    <linearGradient id="bgl" x1="0" y1="0" x2="1" y2="1">
      <stop offset="0%" stop-color="#0b1221"/>
      <stop offset="100%" stop-color="#1f2937"/>
    </linearGradient>
  </defs>
  <rect width="800" height="500" rx="24" fill="url(#bgl)"/>
  <rect x="90" y="90" width="620" height="320" rx="20" fill="#0f172a" stroke="#1f2937" stroke-width="6"/>
  <rect x="130" y="140" width="180" height="230" rx="16" fill="#111827" stroke="#1f2937" stroke-width="3"/>
  <rect x="150" y="170" width="140" height="24" rx="8" fill="#4f46e5"/>
  <rect x="150" y="210" width="120" height="12" rx="6" fill="#9ca3af" opacity="0.8"/>
  <rect x="150" y="240" width="140" height="12" rx="6" fill="#9ca3af" opacity="0.7"/>
  <rect x="150" y="270" width="110" height="12" rx="6" fill="#9ca3af" opacity="0.6"/>
  <rect x="150" y="310" width="90" height="18" rx="8" fill="#22d3ee" opacity="0.8"/>
  <rect x="230" y="310" width="40" height="18" rx="6" fill="#8b5cf6" opacity="0.8"/>
  <rect x="350" y="150" width="320" height="120" rx="18" fill="#111827" stroke="#1f2937" stroke-width="3"/>
  <rect x="370" y="170" width="80" height="80" rx="14" fill="#22d3ee" opacity="0.9"/>
  <rect x="470" y="180" width="180" height="12" rx="6" fill="#e5e7eb" opacity="0.8"/>
  <rect x="470" y="200" width="140" height="10" rx="6" fill="#e5e7eb" opacity="0.6"/>
  <rect x="470" y="220" width="160" height="10" rx="6" fill="#e5e7eb" opacity="0.6"/>
  <rect x="350" y="300" width="220" height="90" rx="18" fill="#111827" stroke="#1f2937" stroke-width="3"/>
  <text x="370" y="340" fill="#e5e7eb" font-family="Inter, 'Segoe UI', Arial" font-size="18" font-weight="700">語 言 لغة Sprache</text>
  <text x="370" y="365" fill="#9ca3af" font-family="Inter, 'Segoe UI', Arial" font-size="14">Multilingual communication & phonetics</text>
  <circle cx="620" cy="330" r="32" fill="#4f46e5" opacity="0.9"/>
  <text x="603" y="338" fill="#e5e7eb" font-family="Inter, 'Segoe UI', Arial" font-size="22" font-weight="800">Aa</text>
</svg>

