<svg width="800" height="500" viewBox="0 0 800 500" xmlns="http://www.w3.org/2000/svg" role="img" aria-labelledby="title desc">
  <title id="title">Mathematics Illustration with Formulas</title>
  <desc id="desc">Chalkboard style math symbols, equations, and graphs</desc>
  <defs>
    <linearGradient id="bgm" x1="0" y1="0" x2="1" y2="1">
      <stop offset="0%" stop-color="#0f172a"/>
      <stop offset="100%" stop-color="#1e293b"/>
    </linearGradient>
  </defs>
  <rect width="800" height="500" rx="24" fill="url(#bgm)"/>
  <rect x="80" y="80" width="640" height="340" rx="18" fill="#0b1221" stroke="#1f2937" stroke-width="6"/>
  <g stroke="#e5e7eb" stroke-width="3" stroke-linecap="round" stroke-linejoin="round" opacity="0.9">
    <path d="M140 360 Q 200 240 260 320 T 380 310" fill="none"/>
    <path d="M420 200 l 60 -90 l 60 90" fill="none"/>
    <path d="M520 240 q 40 60 100 40" fill="none"/>
    <path d="M180 240 h 80" />
    <path d="M180 260 h 80" />
    <path d="M180 280 h 60" />
  </g>
  <g fill="#34d399" opacity="0.9" font-family="Menlo, Consolas, monospace" font-size="26">
    <text x="200" y="180">∫ x² dx = x³/3 + C</text>
    <text x="430" y="310">Σ n=1→∞ (1/n²)</text>
    <text x="220" y="330">π ≈ 3.14159</text>
  </g>
  <rect x="150" y="200" width="90" height="90" rx="12" fill="#111827" stroke="#1f2937" stroke-width="3"/>
  <path d="M170 270 L195 220 L220 270 Z" fill="#3b82f6" opacity="0.9"/>
  <circle cx="500" cy="180" r="32" fill="#22d3ee" opacity="0.8"/>
  <rect x="440" y="340" width="120" height="18" rx="9" fill="#8b5cf6" opacity="0.8"/>
  <rect x="440" y="370" width="160" height="14" rx="7" fill="#cbd5e1" opacity="0.8"/>
</svg>

