<svg width="1200" height="800" viewBox="0 0 1200 800" xmlns="http://www.w3.org/2000/svg" role="img" aria-labelledby="title desc">
  <title id="title">Students in Workshop Gallery Image</title>
  <desc id="desc">Students collaborating in a workshop with laptops and whiteboard</desc>
  <defs>
    <linearGradient id="bgg" x1="0" y1="0" x2="1" y2="1">
      <stop offset="0%" stop-color="#f3f4f6"/>
      <stop offset="100%" stop-color="#e5e7eb"/>
    </linearGradient>
  </defs>
  <rect width="1200" height="800" rx="32" fill="url(#bgg)"/>
  <rect x="80" y="140" width="1040" height="520" rx="28" fill="#ffffff" stroke="#d1d5db" stroke-width="6"/>
  <circle cx="260" cy="320" r="90" fill="#4f46e5" opacity="0.9"/>
  <circle cx="420" cy="380" r="70" fill="#22d3ee" opacity="0.85"/>
  <circle cx="340" cy="470" r="60" fill="#8b5cf6" opacity="0.75"/>
  <rect x="520" y="240" width="520" height="260" rx="22" fill="#0f172a"/>
  <rect x="550" y="270" width="460" height="200" rx="16" fill="#111827"/>
  <rect x="570" y="290" width="420" height="18" rx="9" fill="#22d3ee" opacity="0.8"/>
  <rect x="570" y="320" width="300" height="14" rx="7" fill="#e5e7eb" opacity="0.8"/>
  <rect x="570" y="350" width="360" height="14" rx="7" fill="#9ca3af" opacity="0.6"/>
  <rect x="570" y="380" width="280" height="14" rx="7" fill="#9ca3af" opacity="0.6"/>
  <rect x="570" y="430" width="140" height="16" rx="8" fill="#10b981" opacity="0.9"/>
  <rect x="730" y="430" width="120" height="16" rx="8" fill="#f59e0b" opacity="0.9"/>
  <rect x="110" y="590" width="360" height="24" rx="12" fill="#1f2937" opacity="0.2"/>
  <rect x="110" y="620" width="420" height="22" rx="11" fill="#1f2937" opacity="0.15"/>
  <rect x="110" y="650" width="300" height="18" rx="9" fill="#1f2937" opacity="0.12"/>
  <text x="120" y="210" fill="#111827" font-family="Inter, 'Segoe UI', Arial" font-size="42" font-weight="800">Workshop & Study Session</text>
  <text x="120" y="250" fill="#4b5563" font-family="Inter, 'Segoe UI', Arial" font-size="22">Hands-on collaboration with peers, mentors, and industry guests</text>
</svg>

