<svg width="800" height="500" viewBox="0 0 800 500" xmlns="http://www.w3.org/2000/svg" role="img" aria-labelledby="title desc">
  <title id="title">Video Tutorial Thumbnail</title>
  <desc id="desc">Play button overlay on educational video screen</desc>
  <defs>
    <linearGradient id="bgvideo" x1="0" y1="0" x2="1" y2="1">
      <stop offset="0%" stop-color="#0f172a"/>
      <stop offset="100%" stop-color="#1e293b"/>
    </linearGradient>
    <linearGradient id="play" x1="0" y1="0" x2="1" y2="1">
      <stop offset="0%" stop-color="#22d3ee"/>
      <stop offset="100%" stop-color="#4f46e5"/>
    </linearGradient>
  </defs>
  <rect width="800" height="500" rx="24" fill="url(#bgvideo)"/>
  <rect x="70" y="90" width="660" height="320" rx="20" fill="#0b1221" stroke="#1f2937" stroke-width="6"/>
  <rect x="110" y="130" width="580" height="240" rx="16" fill="#0f172a"/>
  <rect x="130" y="150" width="220" height="14" rx="7" fill="#22d3ee" opacity="0.8"/>
  <rect x="130" y="175" width="180" height="10" rx="5" fill="#9ca3af" opacity="0.7"/>
  <rect x="130" y="195" width="200" height="10" rx="5" fill="#9ca3af" opacity="0.5"/>
  <rect x="130" y="225" width="320" height="12" rx="6" fill="#3b82f6" opacity="0.7"/>
  <rect x="130" y="250" width="260" height="12" rx="6" fill="#8b5cf6" opacity="0.7"/>
  <circle cx="520" cy="250" r="90" fill="rgba(255,255,255,0.06)" stroke="rgba(255,255,255,0.15)" stroke-width="6"/>
  <circle cx="520" cy="250" r="60" fill="url(#play)"/>
  <polygon points="505,220 565,250 505,280" fill="#ffffff"/>
  <rect x="110" y="390" width="200" height="16" rx="8" fill="#22d3ee" opacity="0.8"/>
  <rect x="330" y="390" width="160" height="12" rx="6" fill="#9ca3af" opacity="0.7"/>
  <rect x="520" y="390" width="120" height="12" rx="6" fill="#9ca3af" opacity="0.7"/>
</svg>

